# xmcd
#
# Track frame offsets:
# 150
# 12701
# 30326
#
# Disc length: 590 seconds
#
# Revision: 1
# Processed by: cddbd v1.5.1PL2 Copyright (c) Steve Scherf et al.
# Submitted via: Audio-CD-Archiv 4.00.530
#
DISCID=1a024c03
DTITLE=Tom Jones and Jools Holland - It'll Be Me (single)
DYEAR=2004
DGENRE=blues
TTITLE0=Mir sin fruh,dat mir kein Düsseldorfer sin
TTITLE1=Ich ben noch nit mööd...
TTITLE2=Für uns es en Kölle de Welt ze Äng..
EXTD=
EXTT0=
EXTT1=
EXTT2=
PLAYORDER=
